<?xml version="1.0" encoding="utf-8"?>
<!-- Generator: Adobe Illustrator 26.0.3, SVG Export Plug-In . SVG Version: 6.00 Build 0)  -->
<svg version="1.0" id="katman_1" xmlns="http://www.w3.org/2000/svg" xmlns:xlink="http://www.w3.org/1999/xlink" x="0px" y="0px"
	 viewBox="0 0 800 600" style="enable-background:new 0 0 800 600;" xml:space="preserve">
<style type="text/css">
	.st0{fill:#1D1D1B;}
</style>
<path class="st0" d="M159.6,249.8h-27.1v54.2l-32.1-64.3H73.3v108.3h135.4L159.6,249.8z"/>
<g>
	<polygon class="st0" points="709.2,301 709.2,308.1 706.9,308.1 706.9,301 703,301 703,299.2 713.1,299.2 713.1,301 	"/>
	<polygon class="st0" points="723.9,308.1 723.9,302.1 721.1,308.1 719,308.1 716.3,302.1 716.3,308.1 714.2,308.1 714.2,299.2 
		717,299.2 720.1,306 723.3,299.2 726,299.2 726,308.1 	"/>
	<polygon class="st0" points="281.6,347.1 281.6,321.2 268.6,347.1 254.7,347.1 241.7,321.2 241.7,347.1 226.1,347.1 226.1,299.2 
		247.3,299.2 261.7,328 276,299.2 297.1,299.2 297.1,347.1 	"/>
	<g>
		<g>
			<path class="st0" d="M587.7,335.1c-3.9,8.3-12.7,12.8-29.5,12.8c-13.5,0-22.2-3.4-26.9-9c-3.2-3.8-4.9-9-4.9-15.8
				c0-6.1,1.5-11.2,4.6-14.9c4.9-6.1,13.7-9.8,27.5-9.8c18.8,0,26.7,6.7,29.5,13.9c0.8,2.2,1.3,4.5,1.3,6.9h-17
				c-0.1-1.3-0.5-2.5-1.2-3.6c-1.7-2.6-5.7-4.5-12.8-4.5c-6.5,0-11.2,1.7-13.3,5c-1.1,1.7-1.5,4.1-1.5,7.2c0,3.3,0.6,5.6,1.7,7.2
				c2.4,3.5,7.7,4.9,13.2,4.9c6.4,0,11-1.3,13-4.2c0.7-1.1,1.1-2.3,1.1-3.5h17C589.3,329.4,589,332.7,587.7,335.1"/>
			<polygon class="st0" points="634.2,299.2 613.1,299.2 589.1,347.1 606.8,347.1 621.9,315.9 623.6,311.6 625.4,315.9 640.5,347.1 
				658.2,347.1 			"/>
			<polygon class="st0" points="680.1,334.4 680.1,299.2 663.4,299.2 663.4,347.1 709.2,347.1 709.2,334.4 			"/>
			<polygon class="st0" points="350.9,299.2 335.5,318.1 320.1,299.2 301.6,299.2 327.3,331.3 327.3,347.1 343.7,347.1 343.7,331.3 
				369.4,299.2 			"/>
			<rect x="503.2" y="299.2" class="st0" width="16.8" height="48"/>
			<polygon class="st0" points="476.8,299.2 476.8,316.8 452.9,316.8 452.9,299.2 436.2,299.2 436.2,347.1 452.9,347.1 452.9,329.5 
				476.8,329.5 476.8,347.1 493.5,347.1 493.5,299.2 			"/>
			<polygon class="st0" points="430,299.2 372.8,299.2 372.8,311.9 393.1,311.9 393.1,347.1 409.7,347.1 409.7,311.9 430,311.9 			
				"/>
		</g>
	</g>
</g>
</svg>
