<?xml version="1.0" encoding="utf-8"?>
<!-- Generator: Adobe Illustrator 26.0.3, SVG Export Plug-In . SVG Version: 6.00 Build 0)  -->
<svg version="1.0" id="katman_1" xmlns="http://www.w3.org/2000/svg" xmlns:xlink="http://www.w3.org/1999/xlink" x="0px" y="0px"
	 viewBox="0 0 600 450" style="enable-background:new 0 0 600 450;" xml:space="preserve">
<style type="text/css">
	.st0{fill-rule:evenodd;clip-rule:evenodd;fill:#3D71B7;}
	.st1{fill-rule:evenodd;clip-rule:evenodd;fill:#3EB8EB;}
	.st2{fill-rule:evenodd;clip-rule:evenodd;fill:#365EA9;}
	.st3{fill-rule:evenodd;clip-rule:evenodd;fill:#62C2CD;}
	.st4{fill-rule:evenodd;clip-rule:evenodd;fill:#3D71B7;fill-opacity:0.5;}
	.st5{fill-rule:evenodd;clip-rule:evenodd;fill:#111110;}
</style>
<path class="st0" d="M141.3,250l35.3,47.7H72.4V180.9h54.8c1.9,0,3.7,0.1,5.3,0.2c18.2,1.4,32.6,16.7,32.6,35.4
	C165,232,155.1,245.1,141.3,250L141.3,250z"/>
<path class="st0" d="M140.2,297.7H72.4V180.9l103.5,116.8H140.2L140.2,297.7z"/>
<path class="st1" d="M176.6,297.7H72.4l51.7-81.6L176.6,297.7z"/>
<path class="st2" d="M72.4,248.5v-67.6h29.1l43.4,67.6L72.4,248.5z"/>
<path class="st3" d="M103.6,248.5l20.5-32.4l20.8,32.4H103.6z"/>
<path class="st4" d="M176.6,297.7h-38.7l-13.7-81.6L176.6,297.7L176.6,297.7z"/>
<path class="st5" d="M228.9,219.7v13.6h8.2c6.3,0,9.3-3.2,9.3-6.9c0.1-3.9-3.1-6.7-9.3-6.7H228.9z M237.4,209.4
	c12.2,0,20.2,7.1,20.2,17c0,9.5-5.5,15.2-11.7,16.4l12.9,22.3h-12.8l-11.8-20.9h-5.2v20.9h-11.5v-55.7L237.4,209.4L237.4,209.4z
	 M275.4,242.2h17.7c-1-4.9-4.1-7.7-8.7-7.7C279.3,234.5,276.3,237.4,275.4,242.2 M303.9,245.8c0,1.2-0.1,2.6-0.2,3.5h-28.3
	c1.2,5.6,5.2,8,10.3,8c3.5,0,7.2-1.4,10.1-3.7l6.3,6.7c-4.5,4-10.3,5.8-17,5.8c-12.3,0-20.8-8-20.8-20.2c0-12.1,8.3-20.4,20.2-20.4
	C296,225.6,303.8,233.8,303.9,245.8 M323.5,245.8c0,6.1,4.2,10.6,10.3,10.6c6.4,0,10.3-4.7,10.3-10.6c0-5.9-4-10.6-10.3-10.6
	C327.6,235.2,323.5,239.8,323.5,245.8 M355.1,245.8c0,11.6-8.3,20.3-19.3,20.3c-5.4,0-9.2-2-11.8-5v19.9h-10.7v-54.5h10.5v4.3
	c2.6-3.1,6.4-5.3,11.9-5.3C346.8,225.5,355.1,234.3,355.1,245.8 M401.1,248.7c0,12.2-8.9,17.4-18.9,17.4c-10,0-18.9-5.3-18.9-17.4
	v-22.1H374v21.2c0,6.2,3.5,8.7,8.2,8.7c4.6,0,8.2-2.5,8.2-8.7v-21.2h10.7V248.7z M422,245.8c0,6.1,4.2,10.6,10.3,10.6
	c6.4,0,10.3-4.7,10.3-10.6c0-5.9-4-10.6-10.3-10.6C426.1,235.2,422,239.8,422,245.8 M453.6,245.8c0,11.6-8.3,20.3-19.3,20.3
	c-5.5,0-9.4-2.1-12-5.3v4.3h-10.5v-57.3h10.7v22.8c2.6-3,6.4-5.1,11.7-5.1C445.3,225.5,453.6,234.3,453.6,245.8 M462.4,265.2h10.8
	v-57.3h-10.8C462.4,207.8,462.4,265.2,462.4,265.2z M484.4,265.1h10.8v-38.6h-10.8V265.1L484.4,265.1z M496.6,214
	c0,3.7-3,6.6-6.9,6.6s-6.8-2.9-6.8-6.6c0-3.7,3-6.7,6.8-6.7C493.6,207.3,496.6,210.2,496.6,214L496.6,214z M541.3,232.8l-7.8,6.2
	c-2.4-2.5-5-3.9-8.5-3.9c-5.6,0-10,4.2-10,10.6c0,6.5,4.4,10.6,10,10.6c3.5,0,6.4-1.5,8.7-3.9l7.7,6.3c-3.8,4.7-9.4,7.2-16,7.2
	c-12.7,0-21.3-8.6-21.3-20.3c0-11.7,8.5-20.3,21.3-20.3C532,225.5,537.6,228.2,541.3,232.8"/>
</svg>
