<?xml version="1.0" encoding="utf-8"?>
<!-- Generator: Adobe Illustrator 25.0.1, SVG Export Plug-In . SVG Version: 6.00 Build 0)  -->
<svg version="1.0" id="katman_1" xmlns="http://www.w3.org/2000/svg" xmlns:xlink="http://www.w3.org/1999/xlink" x="0px" y="0px"
	 viewBox="0 0 560 400" style="enable-background:new 0 0 560 400;" xml:space="preserve">
<style type="text/css">
	.st0{fill:#00FFC3;}
</style>
<g transform="matrix(3.1291 0 0 3.1291 45.5521 154.155)">
	<path class="st0" d="M65.8,28.6H38.9L52.3,0.3L65.8,28.6L65.8,28.6z M44.1,25.3h16.4L52.3,8L44.1,25.3L44.1,25.3z M131.4,29V3.7
		h9.4V0.5h-21.6v3.3h8.9V29H131.4z M103.8,28.6v-2.8H90.6V0.5h-3.7v28.1H103.8L103.8,28.6z M0,24.4c2.3,2.5,5.9,4.3,10.8,4.3
		c7.6,0,10.4-4.1,10.4-8C21.2,10.5,4.5,14,4.5,7.9c0-2.6,2.4-4.3,5.8-4.3c3.1,0,6.1,1,8.2,3.3l2.1-2.5c-2.4-2.4-5.7-3.8-10-3.8
		C5,0.5,0.9,3.6,0.9,8.1c0,9.8,16.7,5.9,16.7,12.9c0,2.1-1.6,4.7-6.6,4.7c-4,0-7-1.9-8.9-3.9L0,24.4z"/>
	<path class="st0" d="M144.7,3.7V1h-1V0.5h2.6V1h-1v2.7L144.7,3.7 M146.7,3.7V0.5h1l0.6,2.2l0.6-2.2h1v3.3h-0.6V1.2l-0.6,2.6H148
		l-0.6-2.6v2.6L146.7,3.7"/>
</g>
</svg>
